<svg xmlns="http://www.w3.org/2000/svg" viewBox="0 0 512 512">
<path fill="#3168A5" d="M388.692,495.164l41.619-80.358c4.536-8.778,2.301-19.588-5.296-25.705l-79.729-64.164
	c-6.992-5.629-16.799-5.784-24.01-0.515l-52.891,39.023c-53.92-46.517-91.733-112.375-104.433-184.945l59.395-27.505
	c8.059-3.779,12.802-12.558,11.529-21.573L220.328,26.64c-1.375-9.793-9.421-17.165-19.113-17.519l-88.751-3.11
	c-9.203-0.309-17.532,5.913-19.948,15.18c-54.973,210.85,67.248,427.716,273.388,484.115
	C374.888,507.761,384.323,503.545,388.692,495.164z"/>
</svg>
