<svg xmlns="http://www.w3.org/2000/svg" viewBox="0 0 512 512">
	<path fill="#767676" d="M268.776,271.22L94.469,445.525c-8.405,8.406-22.034,8.406-30.439,0.001l-20.33-20.33
		c-8.394-8.396-8.41-21.993-0.037-30.404l138.141-138.793L43.661,117.208c-8.372-8.412-8.356-22.017,0.035-30.407l20.331-20.327
		c8.408-8.406,22.035-8.405,30.44,0l174.308,174.303C277.183,249.185,277.183,262.812,268.776,271.22L268.776,271.22z"/>
	<path fill="#767676" d="M468.304,271.221l-174.31,174.307c-8.406,8.405-22.035,8.405-30.441-0.001l-20.328-20.329
		c-8.394-8.394-8.407-21.993-0.038-30.404L381.33,255.999L243.189,117.208c-8.374-8.412-8.356-22.015,0.034-30.406l20.331-20.329
		c8.407-8.405,22.035-8.405,30.441,0l174.31,174.305C476.708,249.183,476.708,262.813,468.304,271.221L468.304,271.221z"/>
</svg>
