<svg xmlns="http://www.w3.org/2000/svg" viewBox="0 0 512 512">
<path fill="#767676" d="M400.818,0H111.181c-26.51,0-48,21.49-48,48v416c0,26.51,21.49,48,48,48h289.637c26.512,0,48-21.49,48-48
	V48C448.818,21.49,427.33,0,400.818,0z M191.181,421.826c0,6.627-5.373,12-12,12h-40c-6.627,0-12-5.373-12-12v-40
	c0-6.627,5.373-12,12-12h40c6.627,0,12,5.373,12,12V421.826z M191.181,325.008c0,6.627-5.373,12-12,12h-40
	c-6.627,0-12-5.373-12-12v-40c0-6.627,5.373-12,12-12h40c6.627,0,12,5.373,12,12V325.008z M288,421.826c0,6.627-5.373,12-12,12
	h-40c-6.627,0-12-5.373-12-12v-40c0-6.627,5.373-12,12-12h40c6.627,0,12,5.373,12,12V421.826z M288,325.008
	c0,6.627-5.373,12-12,12h-40c-6.627,0-12-5.373-12-12v-40c0-6.627,5.373-12,12-12h40c6.627,0,12,5.373,12,12V325.008z
	 M384.818,421.826c0,6.627-5.371,12-12,12h-40c-6.627,0-12-5.373-12-12V282.174c0-6.627,5.373-12,12-12h40c6.629,0,12,5.373,12,12
	V421.826z M384.818,180c0,6.627-5.371,12-12,12H139.181c-6.627,0-12-5.373-12-12V76c0-6.627,5.373-12,12-12h233.637
	c6.629,0,12,5.373,12,12V180z"/>
</svg>
