<svg xmlns="http://www.w3.org/2000/svg" viewBox="0 0 512 512">
<path fill="#767676" d="M432,0H80C54.4,0,32,22.4,32,48v416c0,25.6,22.4,48,48,48h352c25.6,0,48-22.4,48-48V48
	C480,22.4,457.6,0,432,0z"/>
<rect x="80" y="48" fill="#82C6EC" width="352" height="112"/>
<rect x="80" y="208" fill="#FFFFFF" width="352" height="256"/>
<path fill="#767676" d="M179.2,352h-38.4c-6.4,0-12.8,6.4-12.8,12.8v38.4c0,6.396,6.4,12.8,12.8,12.8h38.4c6.4,0,12.8-6.4,12.8-12.8
	v-38.4C192,358.4,185.6,352,179.2,352z M179.2,256h-38.4c-6.4,0-12.8,6.4-12.8,12.8v38.4c0,6.399,6.4,12.8,12.8,12.8h38.4
	c6.4,0,12.8-6.4,12.8-12.8v-38.4C192,262.4,185.6,256,179.2,256z M275.2,256h-38.4c-6.4,0-12.8,6.4-12.8,12.8v38.4
	c0,6.399,6.4,12.8,12.8,12.8h38.4c6.399,0,12.8-6.4,12.8-12.8v-38.4C288,262.4,281.6,256,275.2,256z M275.2,352h-38.4
	c-6.4,0-12.8,6.4-12.8,12.8v38.4c0,6.396,6.4,12.8,12.8,12.8h38.4c6.399,0,12.8-6.4,12.8-12.8v-38.4C288,358.4,281.6,352,275.2,352z
	 M371.2,256h-38.4c-6.396,0-12.8,6.4-12.8,12.8v134.4c0,6.396,6.4,12.8,12.8,12.8h38.4c6.396,0,12.8-6.4,12.8-12.8V268.8
	C384,262.4,377.6,256,371.2,256z"/>
</svg>
