<svg xmlns="http://www.w3.org/2000/svg" viewBox="0 0 512 512">
<path fill="#767676" d="M256,8C119.043,8,8,119.083,8,256c0,136.997,111.043,248,248,248s248-111.003,248-248
	C504,119.083,392.957,8,256,8z M430.8,354.325c0,18.094-14.681,32.773-32.775,32.773H113.975c-18.094,0-32.775-14.68-32.775-32.773
	V214.764c0-3.415,3.901-5.34,6.633-3.22c15.29,11.876,35.555,26.97,105.203,77.572c14.412,10.486,38.725,32.631,62.964,32.532
	c24.387,0.194,49.161-22.437,63.014-32.532c69.646-50.601,89.839-65.744,105.154-77.644c2.683-2.097,6.633-0.123,6.633,3.219
	L430.8,354.325L430.8,354.325z M424.509,183.549c-20.875,16.388-27.752,22.118-118.37,87.863
	c-11.512,8.341-34.288,28.581-50.139,28.288c-15.852,0.293-38.652-19.947-50.114-28.288c-90.618-65.745-97.52-71.548-118.395-87.863
	c-3.975-3.146-6.292-7.853-6.292-12.9v-12.974c0-18.094,14.681-32.774,32.775-32.774h284.049c18.095,0,32.775,14.681,32.775,32.774
	v12.974C430.8,175.697,428.459,180.476,424.509,183.549z"/>
</svg>
