<svg xmlns="http://www.w3.org/2000/svg" viewBox="0 0 512 512">
<path fill="#598700" d="M497.813,173.533l7.976-44.643c1.465-8.208-4.846-15.746-13.187-15.746h-83.491l16.32-91.396
	c1.464-8.209-4.846-15.747-13.187-15.747h-45.347c-6.488,0-12.044,4.651-13.184,11.039l-17.161,96.104H226.47l16.32-91.396
	c1.465-8.209-4.847-15.747-13.186-15.747h-45.348c-6.488,0-12.043,4.651-13.185,11.039l-17.162,96.104H65.635
	c-6.487,0-12.043,4.651-13.184,11.039l-7.974,44.643c-1.463,8.208,4.847,15.747,13.187,15.747h83.493l-25.508,142.857H27.369
	c-6.487,0-12.043,4.651-13.184,11.038l-7.974,44.643c-1.463,8.209,4.849,15.747,13.187,15.747h83.493l-16.32,91.396
	c-1.465,8.209,4.848,15.747,13.185,15.747h45.348c6.488,0,12.043-4.651,13.185-11.038l17.163-96.104h110.082l-16.32,91.396
	c-1.467,8.209,4.844,15.747,13.184,15.747h45.347c6.489,0,12.046-4.651,13.186-11.038l17.162-96.104h88.276
	c6.488,0,12.043-4.651,13.185-11.038l7.972-44.643c1.467-8.21-4.846-15.747-13.184-15.747h-83.495l25.511-142.857h88.276
	C491.12,184.572,496.674,179.92,497.813,173.533z M298.286,327.429H188.206l25.508-142.857h110.082L298.286,327.429z"/>
</svg>
