<svg xmlns="http://www.w3.org/2000/svg" viewBox="0 0 512 512">
<path fill="#FFFFFF" d="M256,456c-110.5,0-200-89.5-200-200S145.5,56,256,56s200,89.5,200,200S366.5,456,256,456z"/>
<path fill="#5E5E5E" d="M1033.802,338.6L948.9,276.9c-3.103-2.301-4.9-5.9-4.9-9.7V103c0-6.6,5.4-12,12-12h32c6.602,0,12,5.4,12,12
	v141.7l66.802,48.6c5.398,3.9,6.5,11.4,2.604,16.8L1050.6,336C1046.7,341.3,1039.2,342.5,1033.802,338.6z"/>
<path fill="#2394D5" d="M504,255.531c0.253,136.64-111.18,248.372-247.82,248.468c-59.015,0.042-113.223-20.53-155.822-54.911
	c-11.077-8.938-11.905-25.541-1.839-35.604l11.267-11.27c8.609-8.608,22.353-9.551,31.891-1.981
	C173.062,425.135,212.781,440,256,440c101.705,0,184-82.311,184-184c0-101.705-82.311-184-184-184
	c-48.814,0-93.149,18.969-126.068,49.932l50.754,50.754c10.08,10.08,2.941,27.314-11.313,27.314H24c-8.837,0-16-7.163-16-16V38.627
	c0-14.254,17.234-21.393,27.314-11.314l49.372,49.372C129.209,34.136,189.552,8,256,8C392.81,8,503.747,118.78,504,255.531z"/>
<path fill="#5E5E5E" d="M323.088,334.314l9.823-12.629c8.138-10.463,6.253-25.543-4.21-33.682L288,256.349V152
	c0-13.255-10.745-24-24-24h-16c-13.255,0-24,10.745-24,24v135.65l65.409,50.875C299.872,346.662,314.95,344.777,323.088,334.314z"/>
</svg>
