<svg xmlns="http://www.w3.org/2000/svg" viewBox="0 0 512 512">
<path fill="#FFFFFF" d="M256,456c-110.5,0-200-89.5-200-200S145.5,56,256,56s200,89.5,200,200S366.5,456,256,456z"/>
<path fill="#F7A000" d="M256,8C119.252,8,8,119.252,8,256c0,136.747,111.252,247.999,248,247.999S504,392.747,504,256
	C504,119.252,392.748,8,256,8z M256,439.999c-101.458,0-184-82.542-184-183.999c0-101.458,82.542-184,184-184s184,82.542,184,184
	C440,357.457,357.458,439.999,256,439.999z"/>
<path fill="#5E5E5E" d="M256,299c-25.403,0-46,20.596-46,46s20.597,46,46,46c25.404,0,46-20.596,46-46S281.404,299,256,299z
	 M212.327,133.654l7.418,136c0.348,6.363,5.609,11.346,11.982,11.346h48.546c6.373,0,11.635-4.982,11.979-11.346l7.418-136
	c0.375-6.874-5.098-12.654-11.979-12.654h-63.384C217.424,121,211.952,126.78,212.327,133.654z"/>
</svg>
