<svg xmlns="http://www.w3.org/2000/svg" viewBox="0 0 512 512">
<path fill="#D16123" d="M155.77,462.954C69.74,462.954,0,422.742,0,373.139v45.146C0,467.889,69.74,508.1,155.77,508.1
	c86.028,0,155.77-40.211,155.77-89.813v-45.146C311.539,422.742,241.798,462.954,155.77,462.954z M155.77,392.209
	C69.74,392.209,0,351.997,0,302.393v45.146c0,49.604,69.74,89.817,155.77,89.817c86.028,0,155.77-40.216,155.77-89.817v-45.146
	C311.539,351.997,241.798,392.209,155.77,392.209z M200.461,164.464c0,2.035,0.129,4.051,0.36,6.052
	c14.866,2.386,29.115,5.955,42.407,10.618c-26.503-16.103-42.767-37.864-42.767-61.816V164.464z M356.23,279.881
	c-8.403,0-16.648-0.389-24.691-1.127v45.145c8.043,0.74,16.288,1.129,24.691,1.129c86.025,0,155.77-40.213,155.77-89.814v-45.146
	C512,239.669,442.26,279.881,356.23,279.881z M356.23,209.135c-28.839,0-55.834-4.523-78.996-12.397
	c25.656,15.104,42.917,34.468,50.271,56.013c9.313,1.001,18.909,1.53,28.728,1.53c86.025,0,155.77-40.212,155.77-89.816v-45.146
	C512,168.923,442.26,209.135,356.23,209.135z M356.23,350.626c-8.403,0-16.648-0.39-24.691-1.128v45.146
	c8.043,0.735,16.288,1.127,24.691,1.127c86.025,0,155.77-40.211,155.77-89.816v-45.145C512,310.414,442.26,350.626,356.23,350.626z"
	/>
<ellipse fill="#E39300" cx="356.23" cy="93.717" rx="155.77" ry="89.817"/>
<ellipse fill="#E39300" cx="155.77" cy="276.791" rx="155.77" ry="89.816"/>
</svg>
