<svg xmlns="http://www.w3.org/2000/svg" viewBox="0 0 512 512">
<g>
	<path fill="#767676" d="M240.78,268.777L66.474,94.469c-8.405-8.405-8.405-22.034,0-30.439l20.33-20.331
		c8.396-8.393,21.994-8.409,30.405-0.036l138.793,138.141L394.793,43.661c8.412-8.372,22.016-8.356,30.407,0.035l20.327,20.331
		c8.405,8.407,8.405,22.035,0,30.44L271.224,268.775C262.815,277.184,249.188,277.184,240.78,268.777L240.78,268.777z"/>
	<path fill="#767676" d="M240.78,468.305L66.473,293.995c-8.405-8.406-8.405-22.034,0-30.44l20.33-20.329
		c8.394-8.394,21.994-8.407,30.405-0.038L256.002,381.33l138.791-138.141c8.412-8.373,22.014-8.356,30.406,0.034l20.329,20.332
		c8.404,8.406,8.404,22.035-0.001,30.44l-174.305,174.31C262.817,476.709,249.188,476.709,240.78,468.305L240.78,468.305z"/>
</g>
</svg>
