<svg xmlns="http://www.w3.org/2000/svg" viewBox="0 0 512 512">
<path fill="#C3C3C3" d="M256,8C119.033,8,8,119.033,8,256s111.033,248,248,248c136.968,0,248-111.033,248-248S392.968,8,256,8z
	 M401.25,152.25c22.891,0,41.501,18.61,41.501,41.5c0,22.89-18.61,41.5-41.501,41.5c-22.89,0-41.5-18.61-41.5-41.5
	C359.75,170.86,378.36,152.25,401.25,152.25z M256,110.75c40.139,0,72.624,32.486,72.624,72.625
	C328.624,223.514,296.139,256,256,256c-40.137,0-72.625-32.486-72.625-72.625C183.375,143.236,215.863,110.75,256,110.75z
	 M110.75,152.25c22.89,0,41.5,18.61,41.5,41.5c0,22.89-18.61,41.5-41.5,41.5c-22.889,0-41.5-18.61-41.5-41.5
	C69.25,170.86,87.861,152.25,110.75,152.25z M69.25,339.001c-6.156,0-11.66-2.683-15.457-6.927
	c-1.961-5.213-3.731-10.518-5.293-15.913V297.5c0-22.89,18.61-41.5,41.5-41.5h41.5c11.413,0,21.723,4.604,29.245,12.061
	c-26.133,14.331-44.679,40.203-48.764,70.94H69.25z M380.499,370.125c0,17.184-13.939,31.125-31.124,31.125h-186.75
	c-17.184,0-31.124-13.941-31.124-31.125v-18.676c0-41.24,33.459-74.7,74.7-74.7h5.382c13.552,6.484,28.466,10.377,44.417,10.377
	c15.951,0,30.931-3.893,44.418-10.377h5.383c41.24,0,74.698,33.46,74.698,74.7V370.125z M458.207,332.073
	c-3.797,4.245-9.301,6.928-15.456,6.928h-42.799c-4.02-30.737-22.565-56.609-48.696-70.94c7.521-7.457,17.832-12.061,29.243-12.061
	H422c22.89,0,41.5,18.61,41.5,41.5v18.661C461.938,321.557,460.169,326.861,458.207,332.073z"/>
</svg>
