<svg xmlns="http://www.w3.org/2000/svg" viewBox="0 0 512 512">
<g>
	<path fill="#E65A0A" d="M300.591,267.521L67.123,500.99c-3.006,3.006-7.516,5.01-11.524,5.01c-4.007,0-8.516-2.004-11.522-5.01
		l-25.051-25.05c-3.005-3.007-5.01-7.516-5.01-11.524c0-4.006,2.005-8.516,5.01-11.521L215.92,256.001L19.025,59.105
		c-3.005-3.006-5.01-7.514-5.01-11.523c0-4.008,2.005-8.517,5.01-11.521L44.076,11.01C47.084,8.004,51.592,6,55.599,6
		c4.009,0,8.519,2.004,11.524,5.01l233.468,233.468c3.005,3.007,5.009,7.515,5.009,11.523
		C305.6,260.008,303.596,264.516,300.591,267.521z M492.976,267.521L259.508,500.99c-3.005,3.006-7.515,5.01-11.523,5.01
		c-4.008,0-8.516-2.004-11.522-5.01l-25.052-25.05c-3.006-3.007-5.01-7.516-5.01-11.524c0-4.006,2.004-8.516,5.01-11.521
		l196.896-196.893L211.41,59.105c-3.006-3.006-5.01-7.514-5.01-11.523c0-4.008,2.004-8.517,5.01-11.521l25.052-25.051
		C239.469,8.004,243.977,6,247.985,6c4.008,0,8.518,2.004,11.522,5.01l233.468,233.467c3.006,3.007,5.011,7.516,5.011,11.524
		C497.985,260.008,495.98,264.516,492.976,267.521z"/>
</g>
</svg>
