<svg xmlns="http://www.w3.org/2000/svg" viewBox="0 0 512 512">
<path fill="#FFFFFF" d="M256,456c-110.5,0-200-89.5-200-200S145.5,56,256,56s200,89.5,200,200S366.5,456,256,456z"/>
<path fill="#2394D5" d="M256,8C119.252,8,8,119.252,8,256c0,136.747,111.252,247.999,248,247.999c136.747,0,248-111.252,248-247.999
	C504,119.252,392.747,8,256,8z M256,439.999c-101.458,0-184-82.542-184-183.999c0-101.458,82.542-184,184-184
	c101.457,0,184,82.542,184,184C440,357.457,357.457,439.999,256,439.999z"/>
<g>
	<circle fill="#5E5E5E" cx="256" cy="165" r="42"/>
	<path fill="#5E5E5E" d="M300,341h-12V241c0-6.627-5.373-12-12-12h-64c-6.627,0-12,5.373-12,12v24c0,6.627,5.373,12,12,12h12v64h-12
		c-6.627,0-12,5.373-12,12v24c0,6.627,5.373,12,12,12h88c6.627,0,12-5.373,12-12v-24C312,346.373,306.627,341,300,341z"/>
</g>
</svg>
