<svg xmlns="http://www.w3.org/2000/svg" viewBox="0 0 512 512">
<g>
	<path fill="#2394D5" d="M471.552,322.655l-63.97-63.971l-62.402-62.402L196.814,344.647c-39.624,39.626-64.57,91.57-70.719,147.271
		c-1.273,11.521,8.467,21.254,19.986,19.972l0.174-0.022c55.629-6.189,107.496-31.124,147.077-70.703l114.257-114.263l17.055,17.061
		l-76.766,76.765c-4.712,4.712-4.712,12.349,0,17.061l17.063,17.063c4.702,4.711,12.341,4.711,17.053,0l89.559-89.552
		C483.328,353.521,483.328,334.431,471.552,322.655L471.552,322.655z"/>
	<path fill="#E98D27" d="M293.332,441.164l114.257-114.263l17.055,17.061l-76.766,76.765c-4.712,4.712-4.712,12.349,0,17.061
		l17.063,17.063c4.702,4.711,12.341,4.711,17.053,0l89.559-89.552c11.776-11.777,11.776-30.867,0-42.643l-29.858-29.859
		C441.693,292.796,293.205,441.291,293.332,441.164z"/>
	<path fill="#E98D27" d="M404.876,136.583l-42.635,42.637l96.518,96.52l42.635-42.635c14.136-14.137,14.136-37.063,0-51.199
		l-45.318-45.32C441.931,122.45,419.011,122.45,404.876,136.583z"/>
	<path fill="#FFFFFF" d="M391.479,286.976c4.147,4.148,4.147,10.781,0,14.93L243.388,449.994c-4.146,4.146-10.781,4.146-14.93,0
		c-4.146-4.146-4.146-10.78,0.002-14.927l148.092-148.092C380.7,282.829,387.333,282.829,391.479,286.976z"/>
	<path fill="#165E87" d="M128.311,476.398c-0.901,5.136-1.64,10.312-2.216,15.521c-1.273,11.52,8.467,21.253,19.986,19.972
		l0.174-0.022c5.145-0.572,10.256-1.308,15.33-2.197L128.311,476.398z"/>
</g>
<g>
	<path fill="#767676" d="M21.5,276.376c-11.874,0-21.5-9.626-21.5-21.5c0-68.08,26.512-132.084,74.651-180.224
		C122.791,26.512,186.795,0,254.875,0c11.874,0,21.5,9.626,21.5,21.5s-9.626,21.5-21.5,21.5C138.047,43,43,138.047,43,254.876
		C43,266.75,33.374,276.376,21.5,276.376z"/>
	<path fill="#767676" d="M115.855,276.376c-11.874,0-21.5-9.626-21.5-21.5c0-88.512,72.009-160.521,160.52-160.521
		c11.874,0,21.5,9.626,21.5,21.5s-9.626,21.5-21.5,21.5c-64.801,0-117.52,52.72-117.52,117.521
		C137.355,266.75,127.729,276.376,115.855,276.376z"/>
	<path fill="#767676" d="M204.22,276.374c-11.874,0-21.5-9.626-21.5-21.5c0-39.785,32.369-72.152,72.155-72.152
		c11.874,0,21.5,9.626,21.5,21.5s-9.626,21.5-21.5,21.5c-16.076,0-29.155,13.078-29.155,29.152
		C225.72,266.748,216.094,276.374,204.22,276.374z"/>
</g>
</svg>
