<svg xmlns="http://www.w3.org/2000/svg" viewBox="0 0 512 512">
<path fill="#767676" d="M344.5,160C330,70.7,295.8,8,256,8s-74,62.7-88.5,152H344.5z M160,256c0,22.2,1.2,43.5,3.3,64h185.3
	c2.101-20.5,3.301-41.8,3.301-64s-1.2-43.5-3.301-64H163.3C161.2,212.5,160,233.8,160,256z M484.7,160
	C456.1,92.1,398.2,39.6,326.7,18.4c24.399,33.8,41.2,84.7,50,141.6H484.7z M185.2,18.4C113.8,39.6,55.8,92.1,27.3,160h108
	C144,103.1,160.8,52.2,185.2,18.4L185.2,18.4z M495.4,192H380.7c2.1,21,3.3,42.5,3.3,64s-1.2,43-3.3,64h114.6
	c5.5-20.5,8.601-41.8,8.601-64S500.8,212.5,495.4,192L495.4,192z M128,256c0-21.5,1.2-43,3.3-64H16.6C11.2,212.5,8,233.8,8,256
	s3.2,43.5,8.6,64h114.6C129.2,299,128,277.5,128,256z M167.5,352c14.5,89.3,48.7,152,88.5,152s74-62.7,88.5-152H167.5z M326.8,493.6
	C398.2,472.4,456.2,419.9,484.8,352h-108C368,408.9,351.2,459.8,326.8,493.6z M27.3,352c28.6,67.9,86.5,120.4,158,141.6
	c-24.4-33.8-41.2-84.699-50-141.6H27.3z"/>
</svg>
