<svg xmlns="http://www.w3.org/2000/svg" viewBox="0 0 512 512">
<path fill="#5E5E5E" d="M256,8C119.033,8,8,119.033,8,256s111.033,248,248,248s248-111.033,248-248S392.967,8,256,8z
	 M380.451,131.549C413.693,164.791,432,208.989,432,256c0,34.771-10.025,67.998-28.691,96.396L159.604,108.691
	C188.002,90.025,221.229,80,256,80C303.012,80,347.209,98.307,380.451,131.549z M131.549,380.451C98.307,347.209,80,303.012,80,256
	c0-34.771,10.025-67.998,28.691-96.396l243.705,243.705C323.998,421.975,290.771,432,256,432
	C208.989,432,164.791,413.692,131.549,380.451z"/>
</svg>
