<svg xmlns="http://www.w3.org/2000/svg" viewBox="0 0 512 512">
	<path fill="#C3C3C3" d="M325.925,310.083h7.531l-2.731,11.506c-0.637,2.684,1.038,5.398,3.722,6.035l9.756,2.316
		c2.684,0.637,5.398-1.037,6.036-3.721l3.831-16.137h19.681l-2.731,11.506c-0.637,2.684,1.038,5.398,3.722,6.035l9.756,2.316
		c2.684,0.637,5.398-1.037,6.036-3.721l3.831-16.137h21.812c2.758,0,5.014-2.256,5.015-5.014v-10.027
		c-0.001-2.758-2.257-5.014-5.015-5.016h-17.051l4.761-20.056h12.29c2.758-0.002,5.014-2.258,5.015-5.016v-10.027
		c-0.001-2.758-2.257-5.014-5.015-5.015h-7.528l2.73-11.503c0.636-2.684-1.038-5.399-3.721-6.037l-9.756-2.316
		c-2.684-0.636-5.399,1.038-6.037,3.721l-3.83,16.136h-19.681l2.73-11.503c0.636-2.684-1.038-5.399-3.721-6.037l-9.756-2.316
		c-2.684-0.636-5.399,1.038-6.037,3.721l-3.83,16.136h-21.814c-2.758,0-5.014,2.257-5.014,5.015v10.027
		c0.001,2.758,2.256,5.014,5.014,5.014h17.054l-4.762,20.058h-12.292c-2.758,0-5.014,2.258-5.014,5.016v10.027
		C320.912,307.827,323.167,310.081,325.925,310.083z M363.592,269.97h19.68l-4.761,20.057H358.83L363.592,269.97z"/>
	<path fill="#C3C3C3" d="M210.875,310.083h7.531l-2.731,11.506c-0.637,2.684,1.038,5.398,3.722,6.035l9.756,2.316
		c2.684,0.637,5.398-1.037,6.036-3.721l3.831-16.137H258.7l-2.731,11.506c-0.637,2.684,1.038,5.398,3.722,6.035l9.755,2.316
		c2.684,0.637,5.398-1.037,6.037-3.721l3.83-16.137h21.813c2.758,0,5.014-2.256,5.014-5.014v-10.027
		c0-2.758-2.256-5.014-5.014-5.016h-17.051l4.76-20.056h12.291c2.758-0.002,5.014-2.258,5.014-5.016v-10.027
		c0-2.758-2.256-5.014-5.014-5.015h-7.529l2.73-11.503c0.637-2.684-1.037-5.399-3.721-6.037l-9.756-2.316
		c-2.684-0.636-5.398,1.038-6.037,3.721l-3.83,16.136h-19.68l2.73-11.503c0.636-2.684-1.038-5.399-3.721-6.037l-9.756-2.316
		c-2.684-0.636-5.399,1.038-6.037,3.721l-3.83,16.136h-21.814c-2.758,0-5.014,2.257-5.014,5.015v10.027
		c0.001,2.758,2.256,5.014,5.014,5.014h17.054l-4.762,20.058h-12.292c-2.758,0-5.014,2.258-5.014,5.016v10.027
		C205.862,307.827,208.117,310.081,210.875,310.083z M248.542,269.97h19.679l-4.76,20.057H243.78L248.542,269.97z"/>
	<path fill="#C3C3C3" d="M95.824,310.083h7.531l-2.731,11.506c-0.637,2.684,1.038,5.398,3.722,6.035l9.756,2.316
		c2.684,0.637,5.398-1.037,6.036-3.721l3.831-16.137h19.681l-2.731,11.506c-0.637,2.684,1.038,5.398,3.722,6.035l9.756,2.316
		c2.684,0.637,5.398-1.037,6.036-3.721l3.831-16.137h21.813c2.758,0,5.014-2.256,5.014-5.014v-10.027
		c0-2.758-2.256-5.014-5.014-5.016h-17.051l4.76-20.056h12.291c2.758-0.002,5.014-2.258,5.014-5.016v-10.027
		c0-2.758-2.256-5.014-5.014-5.015h-7.529l2.73-11.503c0.637-2.684-1.037-5.399-3.721-6.037l-9.756-2.316
		c-2.684-0.636-5.399,1.038-6.037,3.721l-3.83,16.136h-19.681l2.73-11.503c0.636-2.684-1.038-5.399-3.721-6.037l-9.756-2.316
		c-2.684-0.636-5.399,1.038-6.037,3.721l-3.83,16.136H95.824c-2.758,0-5.014,2.257-5.014,5.015v10.027
		c0.001,2.758,2.256,5.014,5.014,5.014h17.054l-4.762,20.058H95.824c-2.758,0-5.014,2.258-5.014,5.016v10.027
		C90.812,307.827,93.066,310.081,95.824,310.083z M133.491,269.97h19.68l-4.761,20.057h-19.681L133.491,269.97z"/>
	<path fill="#C3C3C3" d="M256,8C119.033,8,8,119.033,8,256s111.033,248,248,248c136.968,0,248-111.033,248-248S392.968,8,256,8z
		 M436.5,366.307c0,16.607-13.475,30.082-30.083,30.082H105.583c-16.608,0-30.083-13.475-30.083-30.082v-190.53h361V366.307z
		 M75.5,155.722v-10.027c0-16.608,13.475-30.083,30.083-30.083h300.833c16.609,0,30.084,13.475,30.084,30.083v10.027H75.5z"/>
</svg>
