<svg xmlns="http://www.w3.org/2000/svg" viewBox="0 0 512 512">
<path fill="#C3C3C3" d="M76.8,230.4c28.24,0,51.2-22.96,51.2-51.2c0-28.24-22.96-51.2-51.2-51.2c-28.24,0-51.2,22.96-51.2,51.2
	C25.6,207.44,48.56,230.4,76.8,230.4z M435.2,230.4c28.24,0,51.2-22.96,51.2-51.2c0-28.24-22.96-51.2-51.2-51.2
	S384,150.96,384,179.2C384,207.44,406.96,230.4,435.2,230.4z M460.8,256h-51.2c-14.08,0-26.8,5.68-36.08,14.88
	c32.24,17.681,55.12,49.601,60.08,87.521H486.4c14.159,0,25.6-11.44,25.6-25.601v-25.6C512,278.96,489.04,256,460.8,256z M256,256
	c49.52,0,89.6-40.08,89.6-89.6S305.52,76.8,256,76.8c-49.52,0-89.6,40.08-89.6,89.6S206.48,256,256,256z M317.44,281.6H310.8
	c-16.64,8-35.12,12.801-54.8,12.801c-19.68,0-38.08-4.801-54.8-12.801h-6.64c-50.88,0-92.16,41.28-92.16,92.16v23.04
	c0,21.2,17.2,38.4,38.4,38.4h230.4c21.2,0,38.399-17.2,38.399-38.4v-23.04C409.6,322.88,368.32,281.6,317.44,281.6z M138.48,270.88
	c-9.28-9.2-22-14.88-36.08-14.88H51.2C22.96,256,0,278.96,0,307.2v25.6C0,346.96,11.44,358.4,25.6,358.4h52.72
	C83.36,320.48,106.24,288.561,138.48,270.88z"/>
</svg>
