<svg xmlns="http://www.w3.org/2000/svg" viewBox="0 0 512 512">
<path fill="#C3C3C3" d="M469.333,56.889H42.667C19.111,56.889,0,76,0,99.556v14.222h512V99.556
	C512,76,492.889,56.889,469.333,56.889z M0,412.444C0,436,19.111,455.111,42.667,455.111h426.667
	C492.889,455.111,512,436,512,412.444V142.222H0V412.444z M312.889,206.222c0-3.911,3.2-7.111,7.111-7.111h128
	c3.911,0,7.111,3.2,7.111,7.111v14.222c0,3.911-3.2,7.111-7.111,7.111H320c-3.911,0-7.111-3.2-7.111-7.111V206.222z
	 M312.889,263.111c0-3.911,3.2-7.111,7.111-7.111h128c3.911,0,7.111,3.2,7.111,7.111v14.223c0,3.91-3.2,7.11-7.111,7.11H320
	c-3.911,0-7.111-3.2-7.111-7.11V263.111z M312.889,320c0-3.911,3.2-7.111,7.111-7.111h128c3.911,0,7.111,3.2,7.111,7.111v14.223
	c0,3.91-3.2,7.111-7.111,7.111H320c-3.911,0-7.111-3.201-7.111-7.111V320z M156.444,199.111c31.378,0,56.889,25.511,56.889,56.889
	s-25.511,56.889-56.889,56.889c-31.377,0-56.889-25.511-56.889-56.889S125.067,199.111,156.444,199.111z M59.645,380.622
	c7.467-22.845,28.889-39.288,54.133-39.288h7.289c10.933,4.533,22.844,7.11,35.377,7.11s24.533-2.577,35.378-7.11h7.289
	c25.244,0,46.667,16.443,54.133,39.288c2.844,8.8-4.623,17.601-13.867,17.601H73.511C64.267,398.223,56.8,389.334,59.645,380.622z"
	/>
</svg>
