<svg xmlns="http://www.w3.org/2000/svg" viewBox="0 0 512 512">
<g>
	<path fill="#C3C3C3" d="M301.125,316.167h90.25c2.758,0,5.014-2.257,5.014-5.014v-10.028c0-2.758-2.256-5.014-5.014-5.014h-90.25
		c-2.758,0-5.014,2.256-5.014,5.014v10.028C296.111,313.91,298.367,316.167,301.125,316.167z"/>
	<path fill="#C3C3C3" d="M301.125,276.055h90.25c2.758,0,5.014-2.256,5.014-5.013v-10.028c0-2.757-2.256-5.014-5.014-5.014h-90.25
		c-2.758,0-5.014,2.257-5.014,5.014v10.028C296.111,273.799,298.367,276.055,301.125,276.055z"/>
	<path fill="#C3C3C3" d="M301.125,235.944h90.25c2.758,0,5.014-2.256,5.014-5.014v-10.026c0-2.759-2.256-5.014-5.014-5.014h-90.25
		c-2.758,0-5.014,2.255-5.014,5.014v10.026C296.111,233.688,298.367,235.944,301.125,235.944z"/>
	<path fill="#C3C3C3" d="M185.805,296.111c22.125,0,40.112-17.987,40.112-40.111s-17.987-40.111-40.112-40.111
		c-22.123,0-40.111,17.987-40.111,40.111S163.682,296.111,185.805,296.111z"/>
	<path fill="#C3C3C3" d="M256,8C119.033,8,8,119.033,8,256s111.033,248,248,248c136.968,0,248-111.033,248-248S392.968,8,256,8z
		 M436.5,366.306c0,16.608-13.475,30.083-30.083,30.083H105.583c-16.608,0-30.083-13.475-30.083-30.083V175.777h361V366.306z
		 M75.5,155.722v-10.027c0-16.608,13.475-30.083,30.083-30.083h300.833c16.609,0,30.084,13.475,30.084,30.083v10.027H75.5z"/>
	<path fill="#C3C3C3" d="M127.332,356.278h116.948c6.518,0,11.783-6.205,9.778-12.41c-5.265-16.107-20.369-27.701-38.168-27.701
		h-5.14c-7.647,3.196-16.108,5.013-24.945,5.013c-8.836,0-17.234-1.816-24.943-5.013h-5.14c-17.798,0-32.903,11.594-38.167,27.701
		C115.548,350.011,120.813,356.278,127.332,356.278z"/>
</g>
</svg>
