<svg xmlns="http://www.w3.org/2000/svg" viewBox="0 0 512 512">
<circle opacity="0.7" fill="#FFFFFF" cx="256" cy="256" r="229.333"/>
<path fill="#E96C27" d="M261.551,200.008c-3.07-3.067-8.031-3.067-11.098,0l-96.611,96.872c-3.07,3.067-3.07,8.029,0.065,11.099
	l12.795,12.791c3.066,3.069,8.095,3.004,11.161-0.127l61.166-63.388v162.412c0,4.309,3.524,7.833,7.833,7.833h18.278
	c4.31,0,7.833-3.524,7.833-7.833V257.254l61.229,63.387c3.004,3.197,8.029,3.264,11.163,0.129l12.794-12.793
	c3.067-3.067,3.067-8.029,0-11.097L261.551,200.008z M256,8C119.033,8,8,119.033,8,256s111.033,248,248,248
	c136.968,0,248-111.033,248-248S392.968,8,256,8z M256,470.333c-118.373,0-214.333-95.96-214.333-214.333S137.627,41.667,256,41.667
	c118.371,0,214.331,95.96,214.331,214.333S374.371,470.333,256,470.333z M373.498,135.057H138.501c-4.309,0-7.834,3.525-7.834,7.833
	v18.277c0,4.307,3.525,7.833,7.834,7.833h234.997c4.309,0,7.832-3.526,7.832-7.833V142.89
	C381.33,138.581,377.807,135.057,373.498,135.057z"/>
</svg>
